<svg xmlns="http://www.w3.org/2000/svg" width="868" height="250" fill="none"><path fill="url(#a)" d="M125 250a125 125 0 1 1 118.882-86.373L125 125v125Z"/><path fill="#000" d="M350.364 171h-30.137V77.91h31.091c9.121 0 16.955 1.863 23.5 5.59 6.546 3.697 11.561 9.015 15.046 15.954 3.515 6.91 5.272 15.198 5.272 24.864 0 9.697-1.772 18.03-5.318 25-3.515 6.97-8.606 12.334-15.273 16.091-6.666 3.727-14.727 5.591-24.181 5.591Zm-16.091-12.273h15.318c7.091 0 12.985-1.333 17.682-4 4.697-2.697 8.212-6.591 10.545-11.682 2.334-5.121 3.5-11.363 3.5-18.727 0-7.303-1.166-13.5-3.5-18.591-2.303-5.091-5.742-8.954-10.318-11.59-4.576-2.637-10.258-3.955-17.045-3.955h-16.182v68.545Zm97.557 13.818c-4.425 0-8.425-.818-12-2.454-3.576-1.667-6.41-4.076-8.5-7.227-2.061-3.152-3.091-7.016-3.091-11.591 0-3.94.757-7.182 2.272-9.728a16.782 16.782 0 0 1 6.137-6.045c2.575-1.485 5.454-2.606 8.636-3.364a86.006 86.006 0 0 1 9.727-1.727l10.182-1.182c2.606-.333 4.5-.863 5.682-1.591 1.182-.727 1.773-1.909 1.773-3.545v-.318c0-3.97-1.121-7.046-3.364-9.228-2.212-2.181-5.515-3.272-9.909-3.272-4.576 0-8.182 1.015-10.818 3.045-2.606 2-4.409 4.227-5.409 6.682l-12.773-2.909c1.515-4.243 3.727-7.667 6.636-10.273 2.94-2.636 6.319-4.545 10.137-5.727 3.818-1.212 7.833-1.818 12.045-1.818 2.788 0 5.743.333 8.864 1a25.944 25.944 0 0 1 8.818 3.545c2.758 1.727 5.015 4.197 6.773 7.409 1.757 3.182 2.636 7.318 2.636 12.409V171h-13.273v-9.545h-.545c-.879 1.757-2.197 3.484-3.955 5.181-1.757 1.697-4.015 3.106-6.772 4.228-2.758 1.121-6.061 1.681-9.909 1.681Zm2.954-10.909c3.758 0 6.97-.742 9.636-2.227 2.697-1.485 4.743-3.424 6.137-5.818 1.424-2.424 2.136-5.015 2.136-7.773v-9c-.485.485-1.424.94-2.818 1.364-1.364.394-2.924.742-4.682 1.045-1.757.273-3.47.531-5.136.773-1.667.212-3.061.394-4.182.545-2.636.334-5.045.894-7.227 1.682-2.152.788-3.879 1.925-5.182 3.409-1.273 1.455-1.909 3.394-1.909 5.819 0 3.363 1.242 5.909 3.727 7.636 2.485 1.697 5.652 2.545 9.5 2.545ZM485.477 171V77.91h13.591v34.59h.818c.788-1.455 1.925-3.136 3.409-5.045 1.485-1.91 3.546-3.576 6.182-5 2.637-1.455 6.121-2.182 10.455-2.182 5.636 0 10.666 1.424 15.091 4.272 4.424 2.849 7.894 6.955 10.409 12.319 2.545 5.363 3.818 11.818 3.818 19.363 0 7.546-1.258 14.015-3.773 19.409-2.515 5.364-5.969 9.5-10.363 12.409-4.394 2.879-9.409 4.319-15.046 4.319-4.242 0-7.712-.712-10.409-2.137-2.667-1.424-4.757-3.091-6.273-5-1.515-1.909-2.681-3.606-3.5-5.091h-1.136V171h-13.273Zm13.318-34.909c0 4.909.713 9.212 2.137 12.909 1.424 3.697 3.485 6.591 6.182 8.682 2.697 2.06 6 3.091 9.909 3.091 4.06 0 7.454-1.076 10.182-3.228 2.727-2.181 4.787-5.136 6.181-8.863 1.425-3.727 2.137-7.924 2.137-12.591 0-4.606-.697-8.743-2.091-12.409-1.364-3.667-3.424-6.561-6.182-8.682-2.727-2.121-6.136-3.182-10.227-3.182-3.94 0-7.273 1.015-10 3.046-2.697 2.03-4.743 4.863-6.137 8.5-1.394 3.636-2.091 7.878-2.091 12.727Z"/><path fill="url(#b)" d="M642.92 108.182h-14.181c-.546-3.03-1.561-5.697-3.046-8a22.39 22.39 0 0 0-5.454-5.864c-2.152-1.606-4.561-2.818-7.228-3.636-2.636-.818-5.439-1.228-8.409-1.228-5.363 0-10.166 1.349-14.409 4.046-4.212 2.697-7.545 6.652-10 11.864-2.424 5.212-3.636 11.575-3.636 19.091 0 7.575 1.212 13.969 3.636 19.181 2.455 5.212 5.803 9.152 10.046 11.819 4.242 2.666 9.015 4 14.318 4 2.939 0 5.727-.394 8.363-1.182 2.667-.818 5.076-2.015 7.228-3.591a22.017 22.017 0 0 0 5.454-5.773c1.515-2.303 2.561-4.939 3.137-7.909l14.181.045c-.757 4.576-2.227 8.788-4.409 12.637a34.865 34.865 0 0 1-8.318 9.909c-3.363 2.757-7.212 4.894-11.545 6.409-4.334 1.515-9.061 2.273-14.182 2.273-8.061 0-15.243-1.909-21.546-5.728-6.303-3.848-11.272-9.348-14.909-16.5-3.606-7.151-5.409-15.681-5.409-25.59 0-9.94 1.818-18.47 5.455-25.591 3.636-7.152 8.606-12.637 14.909-16.455 6.303-3.848 13.47-5.773 21.5-5.773 4.939 0 9.545.713 13.818 2.137 4.303 1.394 8.167 3.454 11.591 6.181 3.424 2.698 6.258 6 8.5 9.91 2.242 3.878 3.758 8.318 4.545 13.318Zm36.035 64.363c-4.425 0-8.425-.818-12-2.454-3.576-1.667-6.41-4.076-8.5-7.227-2.061-3.152-3.091-7.016-3.091-11.591 0-3.94.757-7.182 2.272-9.728a16.782 16.782 0 0 1 6.137-6.045c2.575-1.485 5.454-2.606 8.636-3.364a86.006 86.006 0 0 1 9.727-1.727l10.182-1.182c2.606-.333 4.5-.863 5.682-1.591 1.182-.727 1.773-1.909 1.773-3.545v-.318c0-3.97-1.121-7.046-3.364-9.228-2.212-2.181-5.515-3.272-9.909-3.272-4.576 0-8.182 1.015-10.818 3.045-2.606 2-4.409 4.227-5.409 6.682l-12.773-2.909c1.515-4.243 3.727-7.667 6.636-10.273 2.94-2.636 6.319-4.545 10.137-5.727 3.818-1.212 7.833-1.818 12.045-1.818 2.788 0 5.743.333 8.864 1a25.944 25.944 0 0 1 8.818 3.545c2.758 1.727 5.015 4.197 6.773 7.409 1.757 3.182 2.636 7.318 2.636 12.409V171h-13.273v-9.545h-.545c-.879 1.757-2.197 3.484-3.955 5.181-1.757 1.697-4.015 3.106-6.772 4.228-2.758 1.121-6.061 1.681-9.909 1.681Zm2.954-10.909c3.758 0 6.97-.742 9.636-2.227 2.697-1.485 4.743-3.424 6.137-5.818 1.424-2.424 2.136-5.015 2.136-7.773v-9c-.485.485-1.424.94-2.818 1.364-1.364.394-2.924.742-4.682 1.045-1.757.273-3.47.531-5.136.773-1.667.212-3.061.394-4.182.545-2.636.334-5.045.894-7.227 1.682-2.152.788-3.879 1.925-5.182 3.409-1.273 1.455-1.909 3.394-1.909 5.819 0 3.363 1.242 5.909 3.727 7.636 2.485 1.697 5.652 2.545 9.5 2.545Zm101.921-43.409-12.319 2.182c-.515-1.576-1.333-3.076-2.454-4.5-1.091-1.424-2.576-2.591-4.455-3.5-1.879-.909-4.227-1.364-7.045-1.364-3.849 0-7.061.864-9.637 2.591-2.575 1.697-3.863 3.894-3.863 6.591 0 2.334.863 4.212 2.591 5.637 1.727 1.424 4.515 2.591 8.363 3.5l11.091 2.545c6.425 1.485 11.212 3.773 14.364 6.864 3.151 3.091 4.727 7.106 4.727 12.045 0 4.182-1.212 7.909-3.636 11.182-2.394 3.242-5.743 5.788-10.046 7.636-4.272 1.849-9.227 2.773-14.863 2.773-7.818 0-14.197-1.667-19.137-5-4.939-3.364-7.969-8.136-9.091-14.318l13.137-2c.818 3.424 2.5 6.015 5.045 7.773 2.546 1.727 5.864 2.591 9.955 2.591 4.454 0 8.015-.925 10.682-2.773 2.666-1.879 4-4.167 4-6.864 0-2.182-.819-4.015-2.455-5.5-1.606-1.485-4.076-2.606-7.409-3.363l-11.818-2.591c-6.515-1.485-11.334-3.849-14.455-7.091-3.091-3.243-4.636-7.349-4.636-12.318 0-4.122 1.151-7.728 3.454-10.819 2.303-3.091 5.485-5.5 9.546-7.227 4.061-1.757 8.712-2.636 13.954-2.636 7.546 0 13.485 1.636 17.819 4.909 4.333 3.242 7.197 7.591 8.591 13.045Zm29.897 11.318V171h-13.591V77.91h13.409v34.635h.864c1.636-3.757 4.136-6.742 7.5-8.954 3.364-2.212 7.758-3.318 13.182-3.318 4.788 0 8.97.985 12.545 2.954 3.606 1.97 6.394 4.909 8.364 8.818 2 3.879 3 8.728 3 14.546V171h-13.591v-42.773c0-5.121-1.318-9.091-3.954-11.909-2.637-2.848-6.303-4.273-11-4.273-3.213 0-6.091.682-8.637 2.046-2.515 1.364-4.5 3.364-5.954 6-1.425 2.606-2.137 5.757-2.137 9.454Z"/><defs><linearGradient id="a" x1="0" x2="250" y1="0" y2="250" gradientUnits="userSpaceOnUse"><stop stop-color="#1D4ED8"/><stop offset="1" stop-color="#38BDF8"/></linearGradient><linearGradient id="b" x1="557.704" x2="571.73" y1="47" y2="225.306" gradientUnits="userSpaceOnUse"><stop stop-color="#1D4ED8"/><stop offset="1" stop-color="#38BDF8"/></linearGradient></defs></svg>